<svg width="25" height="25" viewBox="0 0 25 25" fill="none" xmlns="http://www.w3.org/2000/svg">
<path d="M17.5 8.5V8.5C17.5 5.73858 15.2614 3.5 12.5 3.5V3.5C9.73858 3.5 7.5 5.73858 7.5 8.5V8.5M10.3691 21.5H14.6309C16.1962 21.5 16.9788 21.5 17.6422 21.2898C18.7527 20.9379 19.6836 20.169 20.2389 19.1449C20.5705 18.5332 20.7183 17.7646 21.0139 16.2275V16.2275C21.431 14.0585 21.6396 12.9741 21.4613 12.1003C21.1619 10.6332 20.1525 9.41114 18.7684 8.84011C17.944 8.5 16.8396 8.5 14.6309 8.5H10.3691C8.16039 8.5 7.05604 8.5 6.23164 8.84011C4.84752 9.41114 3.83807 10.6332 3.5387 12.1003C3.3604 12.9741 3.56895 14.0585 3.98606 16.2275V16.2275C4.28166 17.7646 4.42945 18.5332 4.76114 19.1449C5.31643 20.169 6.24725 20.9379 7.35783 21.2898C8.0212 21.5 8.80383 21.5 10.3691 21.5Z" stroke="black" stroke-width="1.5" stroke-linecap="round" stroke-linejoin="round"/>
</svg>
