<svg width="16" height="16" viewBox="0 0 16 16" fill="none" xmlns="http://www.w3.org/2000/svg">
<g opacity="0.5">
<path d="M6 3.33333V3.33333C5.07003 3.33333 4.60504 3.33333 4.22354 3.43556C3.18827 3.71296 2.37962 4.5216 2.10222 5.55688C2 5.93838 2 6.40336 2 7.33334V8.66667C2 10.8528 2 11.9459 2.54254 12.7207C2.74327 13.0074 2.9926 13.2567 3.27927 13.4575C4.0541 14 5.14718 14 7.33333 14H8.66667C10.8528 14 11.9459 14 12.7207 13.4575C13.0074 13.2567 13.2567 13.0074 13.4575 12.7207C14 11.9459 14 10.8528 14 8.66667V7.33333C14 6.40336 14 5.93838 13.8978 5.55688C13.6204 4.5216 12.8117 3.71296 11.7765 3.43556C11.395 3.33333 10.93 3.33333 10 3.33333V3.33333M6 3.33333V4.33333M6 3.33333V2M6 3.33333H10M10 3.33333V2M10 3.33333V4.33333" stroke="white" stroke-width="1.5" stroke-linecap="round" stroke-linejoin="round"/>
<path d="M4.6665 6.66667C4.6665 6.29848 4.96498 6 5.33317 6C5.70136 6 5.99984 6.29848 5.99984 6.66667C5.99984 7.03486 5.70136 7.33333 5.33317 7.33333C4.96498 7.33333 4.6665 7.03486 4.6665 6.66667Z" fill="white"/>
<path d="M4.6665 9C4.6665 8.63181 4.96498 8.33333 5.33317 8.33333C5.70136 8.33333 5.99984 8.63181 5.99984 9C5.99984 9.36819 5.70136 9.66667 5.33317 9.66667C4.96498 9.66667 4.6665 9.36819 4.6665 9Z" fill="white"/>
<path d="M4.6665 11.3333C4.6665 10.9651 4.96498 10.6667 5.33317 10.6667C5.70136 10.6667 5.99984 10.9651 5.99984 11.3333C5.99984 11.7015 5.70136 12 5.33317 12C4.96498 12 4.6665 11.7015 4.6665 11.3333Z" fill="white"/>
<path d="M7.33317 6.66667C7.33317 6.29848 7.63165 6 7.99984 6C8.36803 6 8.6665 6.29848 8.6665 6.66667C8.6665 7.03486 8.36803 7.33333 7.99984 7.33333C7.63165 7.33333 7.33317 7.03486 7.33317 6.66667Z" fill="white"/>
<path d="M7.33317 9C7.33317 8.63181 7.63165 8.33333 7.99984 8.33333C8.36803 8.33333 8.6665 8.63181 8.6665 9C8.6665 9.36819 8.36803 9.66667 7.99984 9.66667C7.63165 9.66667 7.33317 9.36819 7.33317 9Z" fill="white"/>
<path d="M7.33317 11.3333C7.33317 10.9651 7.63165 10.6667 7.99984 10.6667C8.36803 10.6667 8.6665 10.9651 8.6665 11.3333C8.6665 11.7015 8.36803 12 7.99984 12C7.63165 12 7.33317 11.7015 7.33317 11.3333Z" fill="white"/>
<path d="M9.99984 6.66667C9.99984 6.29848 10.2983 6 10.6665 6C11.0347 6 11.3332 6.29848 11.3332 6.66667C11.3332 7.03486 11.0347 7.33333 10.6665 7.33333C10.2983 7.33333 9.99984 7.03486 9.99984 6.66667Z" fill="white"/>
<path d="M9.99984 9C9.99984 8.63181 10.2983 8.33333 10.6665 8.33333C11.0347 8.33333 11.3332 8.63181 11.3332 9C11.3332 9.36819 11.0347 9.66667 10.6665 9.66667C10.2983 9.66667 9.99984 9.36819 9.99984 9Z" fill="white"/>
<path d="M9.99984 11.3333C9.99984 10.9651 10.2983 10.6667 10.6665 10.6667C11.0347 10.6667 11.3332 10.9651 11.3332 11.3333C11.3332 11.7015 11.0347 12 10.6665 12C10.2983 12 9.99984 11.7015 9.99984 11.3333Z" fill="white"/>
</g>
</svg>
