<svg width="30" height="30" viewBox="0 0 30 30" fill="none" xmlns="http://www.w3.org/2000/svg">
<path d="M9.75 11L9.75 17C9.75 17.2321 9.75 17.3482 9.75385 17.4463C9.85629 20.0536 11.9464 22.1437 14.5537 22.2461C14.6518 22.25 14.7679 22.25 15 22.25V22.25C15.2321 22.25 15.3482 22.25 15.4463 22.2461C18.0536 22.1437 20.1437 20.0536 20.2461 17.4463C20.25 17.3482 20.25 17.2321 20.25 17V11M9.75 11H8.25M9.75 11H12.75M20.25 11H21.75M20.25 11L17.25 11M12.75 11V11C12.75 10.7678 12.75 10.6517 12.7596 10.554C12.8532 9.60441 13.6044 8.85315 14.554 8.75963C14.6517 8.75 14.7678 8.75 15 8.75V8.75C15.2322 8.75 15.3483 8.75 15.446 8.75963C16.3956 8.85315 17.1468 9.60441 17.2404 10.554C17.25 10.6517 17.25 10.7678 17.25 11V11M12.75 11L17.25 11M13.125 13.625L13.125 18.875M16.875 13.625V18.875" stroke="#DF2323" stroke-width="1.5" stroke-linecap="round" stroke-linejoin="round"/>
</svg>
