<svg width="174" height="200" viewBox="0 0 174 200" fill="none" xmlns="http://www.w3.org/2000/svg">
<path d="M57.6868 111.557C53.2992 114.338 48.3061 116.021 43.1302 116.463C41.551 110.693 36.316 106.685 30.3335 106.667H13.6668C6.30303 106.667 0.333496 112.636 0.333496 120V186.667C0.333496 194.03 6.30303 200 13.6668 200H30.3335C36.3683 199.976 41.6347 195.902 43.1735 190.067C46.0038 190.215 48.7779 190.915 51.3402 192.127C52.6268 192.737 53.8568 193.46 55.0902 194.173C56.9304 195.296 58.8473 196.287 60.8268 197.14C65.988 199.109 71.4765 200.08 77.0002 200H137C141.929 199.997 146.455 197.276 148.768 192.923C151.081 188.57 150.803 183.296 148.047 179.21C151.955 177.865 155.013 174.777 156.32 170.856C157.627 166.936 157.033 162.63 154.714 159.21C159.613 157.533 163.086 153.153 163.602 148C164.119 142.847 161.584 137.866 157.114 135.25C159.18 132.866 160.322 129.821 160.334 126.667C160.334 119.303 154.364 113.333 147 113.333H104.894C110.107 103.407 119.58 81.2166 110.36 65.0766C106.304 57.9866 97.8268 52.4399 88.8235 57.0266C79.4302 61.7999 81.5335 71.2299 82.5468 75.7566C85.1302 87.3699 76.7668 99.4166 57.6868 111.557ZM30.3335 193.333H13.6668C9.98493 193.333 7.00016 190.348 7.00016 186.667V120C7.00016 116.318 9.98493 113.333 13.6668 113.333H30.3335C34.0154 113.333 37.0002 116.318 37.0002 120V186.667C37.0002 190.348 34.0154 193.333 30.3335 193.333ZM89.0535 74.3066C87.5468 67.5632 88.2235 64.8099 91.8468 62.9732C97.7268 59.9732 102.617 64.9732 104.574 68.3899C114.537 85.8366 96.5368 114.593 96.3535 114.883C95.7036 115.91 95.6635 117.208 96.2488 118.273C96.834 119.337 97.9521 119.999 99.1668 120H147C150.682 120 153.667 122.985 153.667 126.667C153.667 130.348 150.682 133.333 147 133.333H127C125.159 133.333 123.667 134.826 123.667 136.667C123.667 138.508 125.159 140 127 140H150.334C154.015 140 157 142.985 157 146.667C157 150.348 154.015 153.333 150.334 153.333H127C125.159 153.333 123.667 154.826 123.667 156.667C123.667 158.508 125.159 160 127 160H143.667C147.349 160 150.334 162.985 150.334 166.667C150.334 170.348 147.349 173.333 143.667 173.333H127C125.159 173.333 123.667 174.826 123.667 176.667C123.667 178.508 125.159 180 127 180H137C140.682 180 143.667 182.985 143.667 186.667C143.667 190.348 140.682 193.333 137 193.333H77.0002C72.3354 193.415 67.6977 192.609 63.3335 190.96C61.6443 190.223 60.0081 189.37 58.4368 188.407C57.0502 187.6 55.6568 186.8 54.2135 186.11C50.9017 184.552 47.321 183.647 43.6668 183.443V123.17C49.9298 122.615 55.9662 120.557 61.2635 117.17C82.9635 103.377 92.3135 88.9532 89.0535 74.3066Z" fill="white"/>
<path d="M127.033 3.23657V3.30657V3.33323C127.033 4.5599 126.73 33.3332 100.337 33.3332C98.4958 33.3332 97.0034 34.8256 97.0034 36.6666C97.0034 38.5075 98.4958 39.9999 100.337 39.9999C126.627 39.9999 127.03 68.7799 127.033 69.9999C127.009 71.8409 128.481 73.3534 130.322 73.3782C132.163 73.4031 133.675 71.9309 133.7 70.0899V70.0199V69.9999C133.7 68.7732 134.003 39.9999 160.4 39.9999C162.241 39.9999 163.733 38.5075 163.733 36.6666C163.733 34.8256 162.241 33.3332 160.4 33.3332C134.107 33.3332 133.707 4.55323 133.7 3.33323C133.725 1.49228 132.253 -0.0202473 130.412 -0.0451001C128.571 -0.0699529 127.058 1.40228 127.033 3.24323V3.23657ZM145.2 36.6666C138.374 40.2673 133.098 46.2367 130.363 53.4532C127.63 46.2358 122.354 40.2658 115.527 36.6666C122.354 33.0673 127.63 27.0974 130.363 19.8799C133.098 27.0964 138.374 33.0658 145.2 36.6666Z" fill="white"/>
<path d="M43.6667 43.3333V43.3133C43.6611 41.4724 42.1643 39.9845 40.3233 39.99C38.4824 39.9955 36.9945 41.4924 37 43.3333C37 44.15 36.72 63.3333 20.3333 63.3333C18.4924 63.3333 17 64.8257 17 66.6667C17 68.5076 18.4924 70 20.3333 70C36.72 70 37 89.19 37 90V90.02C37.0055 91.861 38.5024 93.3489 40.3433 93.3433C42.1843 93.3378 43.6722 91.841 43.6667 90C43.6667 89.1833 43.9467 70 60.3333 70C62.1743 70 63.6667 68.5076 63.6667 66.6667C63.6667 64.8257 62.1743 63.3333 60.3333 63.3333C43.9467 63.3333 43.6667 44.1433 43.6667 43.3333ZM48.1467 66.6667C44.7714 68.918 42.0709 72.0437 40.3333 75.71C38.5958 72.0437 35.8953 68.918 32.52 66.6667C35.8959 64.4161 38.5967 61.2902 40.3333 57.6233C42.07 61.2902 44.7707 64.4161 48.1467 66.6667Z" fill="white"/>
<path d="M157 70C155.159 70 153.667 71.4924 153.667 73.3333V80C153.667 81.841 155.159 83.3333 157 83.3333C158.841 83.3333 160.334 81.841 160.334 80V73.3333C160.334 71.4924 158.841 70 157 70Z" fill="white"/>
<path d="M157 103.333C158.841 103.333 160.334 101.841 160.334 100V93.3333C160.334 91.4924 158.841 90 157 90C155.159 90 153.667 91.4924 153.667 93.3333V100C153.667 101.841 155.159 103.333 157 103.333Z" fill="white"/>
<path d="M163.667 89.9999H170.333C172.174 89.9999 173.667 88.5075 173.667 86.6666C173.667 84.8256 172.174 83.3333 170.333 83.3333H163.667C161.826 83.3333 160.333 84.8256 160.333 86.6666C160.333 88.5075 161.826 89.9999 163.667 89.9999Z" fill="white"/>
<path d="M150.333 89.9999C152.174 89.9999 153.667 88.5075 153.667 86.6666C153.667 84.8256 152.174 83.3333 150.333 83.3333H143.667C141.826 83.3333 140.333 84.8256 140.333 86.6666C140.333 88.5075 141.826 89.9999 143.667 89.9999H150.333Z" fill="white"/>
<path d="M72.9767 30.6898L77.9767 35.6898C79.2846 36.953 81.3636 36.935 82.6494 35.6492C83.9352 34.3634 83.9533 32.2844 82.69 30.9765L77.69 25.9765C76.8531 25.1099 75.6138 24.7624 74.4483 25.0675C73.2829 25.3725 72.3728 26.2827 72.0677 27.4481C71.7627 28.6135 72.1102 29.8529 72.9767 30.6898Z" fill="white"/>
<path d="M62.9767 20.6898C64.2847 21.9531 66.3637 21.935 67.6495 20.6492C68.9352 19.3634 68.9533 17.2844 67.6901 15.9765L62.6901 10.9765C61.3821 9.71324 59.3031 9.7313 58.0173 11.0171C56.7315 12.3029 56.7135 14.3819 57.9767 15.6898L62.9767 20.6898Z" fill="white"/>
<path d="M57.9769 35.6898C59.2786 36.9911 61.3886 36.9911 62.6903 35.6898L67.6903 30.6898C68.5568 29.8529 68.9043 28.6135 68.5993 27.4481C68.2942 26.2827 67.3841 25.3725 66.2186 25.0675C65.0532 24.7624 63.8138 25.1099 62.9769 25.9765L57.9769 30.9765C56.6757 32.2781 56.6757 34.3881 57.9769 35.6898Z" fill="white"/>
<path d="M75.3337 21.6665C76.2177 21.6663 77.0654 21.3149 77.6904 20.6898L82.6904 15.6898C83.5569 14.8529 83.9044 13.6135 83.5993 12.4481C83.2943 11.2827 82.3841 10.3725 81.2187 10.0675C80.0533 9.76241 78.8139 10.1099 77.977 10.9765L72.977 15.9765C72.024 16.9298 71.739 18.3632 72.2548 19.6086C72.7706 20.854 73.9857 21.6662 75.3337 21.6665Z" fill="white"/>
</svg>
