<svg width="57" height="18" viewBox="0 0 57 18" fill="none" xmlns="http://www.w3.org/2000/svg">
<path d="M9.61416 0.771999V2.548H2.34216V8.188H8.24616V9.964H2.34216V17.5H0.158156V0.771999H9.61416ZM37.0632 17.716C36.0552 17.716 35.1512 17.548 34.3512 17.212C33.5512 16.86 32.9192 16.38 32.4552 15.772C31.9912 15.148 31.7352 14.436 31.6872 13.636H33.9432C34.0072 14.292 34.3112 14.828 34.8552 15.244C35.4152 15.66 36.1432 15.868 37.0392 15.868C37.8712 15.868 38.5272 15.684 39.0072 15.316C39.4872 14.948 39.7272 14.484 39.7272 13.924C39.7272 13.348 39.4712 12.924 38.9592 12.652C38.4472 12.364 37.6552 12.084 36.5832 11.812C35.6072 11.556 34.8072 11.3 34.1832 11.044C33.5752 10.772 33.0472 10.38 32.5992 9.868C32.1672 9.34 31.9512 8.652 31.9512 7.804C31.9512 7.132 32.1512 6.516 32.5512 5.956C32.9512 5.396 33.5192 4.956 34.2552 4.636C34.9912 4.3 35.8312 4.132 36.7752 4.132C38.2312 4.132 39.4072 4.5 40.3032 5.236C41.1992 5.972 41.6792 6.98 41.7432 8.26H39.5592C39.5112 7.572 39.2312 7.02 38.7192 6.604C38.2232 6.188 37.5512 5.98 36.7032 5.98C35.9192 5.98 35.2952 6.148 34.8312 6.484C34.3672 6.82 34.1352 7.26 34.1352 7.804C34.1352 8.236 34.2712 8.596 34.5432 8.884C34.8312 9.156 35.1832 9.38 35.5992 9.556C36.0312 9.716 36.6232 9.9 37.3752 10.108C38.3192 10.364 39.0872 10.62 39.6792 10.876C40.2712 11.116 40.7752 11.484 41.1912 11.98C41.6232 12.476 41.8472 13.124 41.8632 13.924C41.8632 14.644 41.6632 15.292 41.2632 15.868C40.8632 16.444 40.2952 16.9 39.5592 17.236C38.8392 17.556 38.0072 17.716 37.0632 17.716ZM51.5943 4.108C53.1943 4.108 54.4903 4.596 55.4823 5.572C56.4743 6.532 56.9703 7.924 56.9703 9.748V17.5H54.8103V10.06C54.8103 8.748 54.4823 7.748 53.8263 7.06C53.1703 6.356 52.2743 6.004 51.1383 6.004C49.9863 6.004 49.0663 6.364 48.3783 7.084C47.7063 7.804 47.3703 8.852 47.3703 10.228V17.5H45.1863V4.348H47.3703V6.22C47.8023 5.548 48.3863 5.028 49.1223 4.66C49.8743 4.292 50.6983 4.108 51.5943 4.108Z" fill="white"/>
</svg>
