<svg width="20" height="20" viewBox="0 0 20 20" fill="none" xmlns="http://www.w3.org/2000/svg">
<path d="M14.1667 6.66667V6.66667C14.1667 4.36548 12.3012 2.5 10 2.5V2.5C7.69883 2.5 5.83335 4.36548 5.83335 6.66667V6.66667M8.22427 17.5H11.7758C12.4919 17.5 12.8499 17.5 13.1637 17.4556C14.8392 17.2184 16.2399 16.0613 16.7892 14.4609C16.8921 14.1611 16.9597 13.8095 17.095 13.1063V13.1063C17.2856 12.1149 17.381 11.6192 17.3853 11.2146C17.4086 9.02096 15.8468 7.13016 13.6882 6.73884C13.2901 6.66667 12.7853 6.66667 11.7758 6.66667H8.22427C7.21471 6.66667 6.70993 6.66667 6.31182 6.73884C4.15325 7.13016 2.59142 9.02096 2.61478 11.2146C2.61909 11.6192 2.71442 12.1149 2.90507 13.1063V13.1063C3.0403 13.8095 3.10792 14.1611 3.21081 14.4609C3.76014 16.0613 5.16088 17.2184 6.83631 17.4556C7.15013 17.5 7.50818 17.5 8.22427 17.5Z" stroke="white" stroke-width="2" stroke-linecap="round" stroke-linejoin="round"/>
</svg>
