<svg width="24" height="24" viewBox="0 0 24 24" fill="none" xmlns="http://www.w3.org/2000/svg">
<g opacity="0.5">
<path d="M3 11.7C3 8.70021 3 7.20032 3.76393 6.14886C4.01065 5.80928 4.30928 5.51065 4.64886 5.26393C5.70032 4.5 7.20021 4.5 10.2 4.5H13.8C16.7998 4.5 18.2997 4.5 19.3511 5.26393C19.6907 5.51065 19.9893 5.80928 20.2361 6.14886C21 7.20032 21 8.70021 21 11.7V12.3C21 15.2998 21 16.7997 20.2361 17.8511C19.9893 18.1907 19.6907 18.4893 19.3511 18.7361C18.2997 19.5 16.7998 19.5 13.8 19.5H10.2C7.20021 19.5 5.70032 19.5 4.64886 18.7361C4.30928 18.4893 4.01065 18.1907 3.76393 17.8511C3 16.7997 3 15.2998 3 12.3V11.7Z" stroke="white" stroke-width="1.5" stroke-linejoin="round"/>
<path d="M3 8L6.47486 10.7025C8.82448 12.5299 9.99929 13.4436 11.3413 13.6221C11.7788 13.6802 12.222 13.6802 12.6595 13.622C14.0015 13.4436 15.1762 12.5298 17.5258 10.7023L21 8" stroke="white" stroke-width="1.5" stroke-linejoin="round"/>
</g>
</svg>
