<svg width="90" height="18" viewBox="0 0 90 18" fill="none" xmlns="http://www.w3.org/2000/svg">
<path d="M6.28772 4.50259C7.2124 1.97232 10.791 1.97232 11.7156 4.50259L11.751 4.59947C11.9861 5.24261 12.5979 5.67041 13.2826 5.67041H13.6561C16.1493 5.67041 17.1442 8.89208 15.0853 10.2979C14.496 10.7002 14.2573 11.4577 14.5022 12.1278C15.3726 14.5094 12.7308 16.6735 10.6009 15.2977L9.96854 14.8892C9.38002 14.509 8.62334 14.509 8.03482 14.8892L7.41521 15.2895C5.28123 16.6679 2.63378 14.5012 3.50579 12.115C3.74872 11.4503 3.51733 10.699 2.9383 10.2921C0.906989 8.86439 1.91714 5.67041 4.39998 5.67041H4.72316C5.40645 5.67041 6.01695 5.24352 6.25149 4.60174L6.28772 4.50259Z" fill="#FFC700"/>
<path d="M24.2877 4.50259C25.2124 1.97232 28.791 1.97232 29.7156 4.50259L29.751 4.59947C29.9861 5.24261 30.5979 5.67041 31.2826 5.67041H31.6561C34.1493 5.67041 35.1442 8.89208 33.0853 10.2979C32.496 10.7002 32.2573 11.4577 32.5022 12.1278C33.3726 14.5094 30.7308 16.6735 28.6009 15.2977L27.9685 14.8892C27.38 14.509 26.6233 14.509 26.0348 14.8892L25.4152 15.2895C23.2812 16.6679 20.6338 14.5012 21.5058 12.115C21.7487 11.4503 21.5173 10.699 20.9383 10.2921C18.907 8.86439 19.9171 5.67041 22.4 5.67041H22.7232C23.4064 5.67041 24.017 5.24352 24.2515 4.60174L24.2877 4.50259Z" fill="#FFC700"/>
<path d="M42.2877 4.50259C43.2124 1.97232 46.791 1.97232 47.7156 4.50259L47.751 4.59947C47.9861 5.24261 48.5979 5.67041 49.2826 5.67041H49.6561C52.1493 5.67041 53.1442 8.89208 51.0853 10.2979C50.496 10.7002 50.2573 11.4577 50.5022 12.1278C51.3726 14.5094 48.7308 16.6735 46.6009 15.2977L45.9685 14.8892C45.38 14.509 44.6233 14.509 44.0348 14.8892L43.4152 15.2895C41.2812 16.6679 38.6338 14.5012 39.5058 12.115C39.7487 11.4503 39.5173 10.699 38.9383 10.2921C36.907 8.86439 37.9171 5.67041 40.4 5.67041H40.7232C41.4064 5.67041 42.017 5.24352 42.2515 4.60174L42.2877 4.50259Z" fill="#FFC700"/>
<path d="M60.2877 4.50259C61.2124 1.97232 64.791 1.97232 65.7156 4.50259L65.751 4.59947C65.9861 5.24261 66.5979 5.67041 67.2826 5.67041H67.6561C70.1493 5.67041 71.1442 8.89208 69.0853 10.2979C68.496 10.7002 68.2573 11.4577 68.5022 12.1278C69.3726 14.5094 66.7308 16.6735 64.6009 15.2977L63.9685 14.8892C63.38 14.509 62.6233 14.509 62.0348 14.8892L61.4152 15.2895C59.2812 16.6679 56.6338 14.5012 57.5058 12.115C57.7487 11.4503 57.5173 10.699 56.9383 10.2921C54.907 8.86439 55.9171 5.67041 58.4 5.67041H58.7232C59.4064 5.67041 60.017 5.24352 60.2515 4.60174L60.2877 4.50259Z" fill="#FFC700"/>
<path d="M78.8724 4.58183C79.5766 2.56884 82.4443 2.62849 83.1485 4.64148V4.64148C83.4494 5.50155 84.2659 6.09157 85.1771 6.09157H85.3604C87.3898 6.09157 88.2235 8.6961 86.5714 9.87454V9.87454C85.8164 10.4131 85.5102 11.3925 85.8164 12.2679V12.2679C86.4953 14.2086 84.3195 15.9232 82.6152 14.7731L82.2718 14.5414C81.5032 14.0227 80.4968 14.0227 79.7282 14.5414L79.4 14.7629C77.6908 15.9162 75.5088 14.1969 76.1896 12.2506V12.2506C76.4931 11.383 76.1968 10.4119 75.4559 9.86786V9.86786C73.8275 8.67228 74.6731 6.09157 76.6933 6.09157H76.829C77.7365 6.09157 78.5449 5.51795 78.8446 4.66133L78.8724 4.58183Z" stroke="#FFC700" stroke-width="1.5" stroke-linejoin="round"/>
<path d="M78.8724 4.58183C79.5766 2.56884 82.4443 2.62849 83.1485 4.64148C83.4494 5.50155 84.2659 6.09157 85.1771 6.09157H85.3604C87.3898 6.09157 88.2235 8.6961 86.5714 9.87454C85.8164 10.4131 85.5102 11.3925 85.8164 12.2679C86.4953 14.2086 84.3195 15.9232 82.6152 14.7731L82.2718 14.5414C81.5032 14.0227 80.4968 14.0227 79.7282 14.5414L79.4 14.7629C77.6908 15.9162 75.5088 14.1969 76.1896 12.2506C76.4931 11.383 76.1968 10.4119 75.4559 9.86786C73.8275 8.67228 74.6731 6.09157 76.6933 6.09157H76.829C77.7365 6.09157 78.5449 5.51795 78.8446 4.66133L78.8724 4.58183Z" fill="#FFC700" fill-opacity="0.2"/>
</svg>
