<svg width="20" height="20" viewBox="0 0 20 20" fill="none" xmlns="http://www.w3.org/2000/svg">
<path d="M7.16318 4.10911C7.55023 3.00272 7.74376 2.44953 7.91716 2.18832C8.90613 0.698542 11.0939 0.698542 12.0828 2.18832C12.2562 2.44953 12.459 3.02923 12.8646 4.18864V4.18864C12.9494 4.43097 12.9918 4.55214 13.0375 4.65302C13.4095 5.47487 14.1954 6.03255 15.094 6.11231C15.2043 6.1221 15.326 6.1221 15.5695 6.1221H15.8139C16.5159 6.1221 16.8669 6.1221 17.0423 6.14706C19.1102 6.4415 19.9266 8.99187 18.414 10.4325C18.2858 10.5546 18 10.7584 17.4285 11.1661V11.1661C17.2652 11.2825 17.1836 11.3407 17.1141 11.3983C16.3597 12.0232 16.0398 13.0311 16.2957 13.9767C16.3193 14.0638 16.3535 14.1616 16.4219 14.3571V14.3571C16.7101 15.1811 16.8543 15.5931 16.8895 15.8085C17.211 17.772 15.2216 19.306 13.4044 18.4958C13.205 18.4069 12.8545 18.1704 12.1536 17.6975L11.6958 17.3885C11.4102 17.1958 11.2674 17.0995 11.1264 17.0283C10.418 16.6708 9.58198 16.6708 8.8736 17.0283C8.73255 17.0995 8.58978 17.1958 8.30424 17.3885L7.86663 17.6838C7.14941 18.1678 6.7908 18.4098 6.58634 18.5C4.77429 19.299 2.79678 17.7742 3.10885 15.8186C3.14406 15.5979 3.29142 15.1767 3.58615 14.3342V14.3342C3.65538 14.1363 3.69 14.0373 3.71386 13.9487C3.96494 13.0169 3.65719 12.0237 2.92318 11.397C2.85343 11.3375 2.77156 11.2774 2.60782 11.1571V11.1571C2.0386 10.7392 1.75399 10.5303 1.62516 10.4034C0.153039 8.95372 0.974968 6.44543 3.01955 6.14812C3.19848 6.1221 3.55156 6.1221 4.25772 6.1221H4.43867C4.67434 6.1221 4.79218 6.1221 4.89896 6.11293C5.80283 6.03528 6.5937 5.47408 6.96545 4.64656C7.00937 4.54879 7.04828 4.43756 7.1261 4.21511L7.16318 4.10911Z" stroke="white" stroke-width="1.5" stroke-linejoin="round"/>
</svg>
