<svg width="40" height="40" viewBox="0 0 40 40" fill="none" xmlns="http://www.w3.org/2000/svg">
<g clip-path="url(#clip0_115_947)">
<path d="M20.0001 40C31.0454 40 39.9993 31.0461 39.9993 20.0009C39.9993 8.95564 31.0454 0.00170898 20.0001 0.00170898C8.9549 0.00170898 0.000976562 8.95564 0.000976562 20.0009C0.000976562 31.0461 8.9549 40 20.0001 40Z" fill="#F3F2F2"/>
<path d="M14.8096 23.8373L16.3399 14.8008H18.8175L17.2872 23.8373H14.8096Z" fill="#293688"/>
<path d="M26.1075 15.0343C25.6165 14.8512 24.8473 14.655 23.8866 14.655C21.438 14.655 19.7132 15.881 19.6983 17.6373C19.6847 18.9355 20.9296 19.6596 21.87 20.0922C22.8344 20.5343 23.1587 20.8179 23.154 21.213C23.148 21.8187 22.3834 22.0956 21.671 22.0956C20.6795 22.0952 20.1524 21.9585 19.3386 21.6213L19.0193 21.4773L18.6714 23.5002C19.2503 23.7526 20.3207 23.9714 21.432 23.9825C24.0362 23.9819 25.7276 22.7712 25.7466 20.8951C25.756 19.8672 25.0957 19.0849 23.6662 18.4398C22.7999 18.0223 22.2694 17.7435 22.2752 17.3197C22.2752 16.9443 22.7245 16.5426 23.6943 16.5426C24.5045 16.53 25.0916 16.7056 25.5492 16.8887L25.7709 16.9929L26.1075 15.0343Z" fill="#293688"/>
<path d="M30.3318 14.8008C29.7382 14.8008 29.3093 14.9821 29.0484 15.5704L25.3765 23.8377H27.9997L28.5097 22.4529H31.6439L31.9351 23.8377H34.2672L32.2269 14.801H30.3319L30.3318 14.8008ZM29.2057 20.6447C29.4104 20.1244 30.1926 18.119 30.1926 18.119C30.1784 18.1428 30.3962 17.5961 30.5213 17.2569L30.689 18.0357C30.689 18.0357 31.1629 20.1928 31.2624 20.645H29.2057V20.6447Z" fill="#293688"/>
<path d="M10.2915 20.9952L10.0732 19.7564C9.62105 18.3123 8.21764 16.7498 6.64502 15.967L8.83407 23.8373H11.4579L15.3929 14.8008H12.7697L10.2915 20.9952Z" fill="#293688"/>
<path d="M3.95166 14.8005V14.9465C7.06061 15.6942 9.21902 17.5846 10.0735 19.7562L9.17514 15.5717C9.02517 14.9999 8.5707 14.8205 8.03293 14.8006L3.95166 14.8005Z" fill="#F7981D"/>
<path d="M19.9986 39.9996C27.7177 39.9996 34.4107 35.624 37.7445 29.2202H2.25293C5.58697 35.624 12.2798 39.9996 19.9986 39.9996Z" fill="#F7981D"/>
<path d="M19.9985 0C12.4019 0 5.7947 4.23529 2.40918 10.4737H37.5885C34.2026 4.23563 27.5951 0 19.9985 0Z" fill="#293688"/>
</g>
<defs>
<clipPath id="clip0_115_947">
<rect width="40" height="40" fill="white"/>
</clipPath>
</defs>
</svg>
